<svg width="94" height="94" viewBox="0 0 94 94" fill="none" xmlns="http://www.w3.org/2000/svg">
<path d="M47 0C21.0368 0 0 21.0368 0 47C0 67.9144 13.6777 85.6159 32.5573 91.7204C30.8744 79.1748 31.8535 64.3955 36.9788 52.6914C42.6244 39.8551 57.6025 32.5726 57.6025 32.5726C57.6025 32.5726 40.8955 35.7549 32.5726 49.6315C28.151 56.9906 25.7031 69.9951 25.7031 69.9951C25.7031 69.9951 9.95996 48.7441 28.8548 30.9202C41.4769 19.002 67.8532 21.4193 75.2275 25.6725C65.4512 41.1709 71.2344 57.3425 60.6165 67.0729C48.943 77.7979 36.015 75.9619 36.015 75.9619C36.015 75.9619 35.709 83.2751 39.0443 93.2656C41.6299 93.7246 44.2767 94 47 94C72.9632 94 94 72.9632 94 47C94 21.0368 72.9632 0 47 0Z" fill="black"/>
</svg>